<svg width="114" height="27" viewBox="0 0 114 27" fill="none" xmlns="http://www.w3.org/2000/svg">
<path d="M18.6998 21.7812H9.72298L8.1612 26H0.0567017L10.3983 2.375H18.2215L28.549 26H20.3039L18.6998 21.7812ZM16.5048 16.0438L14.2115 10.0953L11.918 16.0438H16.5048Z" fill="#031BF4"/>
<path d="M50.8504 16.6766C50.8504 22.625 46.756 26.2672 41.9299 26.2672C41.0011 26.3468 40.0662 26.2219 39.1911 25.9011C38.3159 25.5804 37.5217 25.0717 36.8646 24.411V26H29.6043V0.884399H37.2445V8.71721C37.881 8.15491 38.623 7.72482 39.4274 7.452C40.2318 7.17919 41.0825 7.0691 41.9299 7.12815C46.756 7.12815 50.8504 10.7422 50.8504 16.6766ZM43.1117 16.6766C43.1117 14.286 41.8032 13.0625 40.1148 13.0625C38.4263 13.0625 37.1037 14.286 37.1037 16.6766C37.1037 19.0672 38.3982 20.375 40.1148 20.375C41.8313 20.375 43.1117 19.0813 43.1117 16.6766Z" fill="#031BF4"/>
<path d="M52.2574 16.6766C52.2574 11.0516 56.76 7.12817 63.0072 7.12817C69.2544 7.12817 73.7428 11.0797 73.7428 16.6766C73.7428 22.2735 69.2825 26.2672 63.0072 26.2672C56.7318 26.2672 52.2574 22.2875 52.2574 16.6766ZM66.0041 16.6766C66.0041 14.286 64.6956 13.0625 63.0072 13.0625C61.3187 13.0625 59.9961 14.286 59.9961 16.6766C59.9961 19.0672 61.3187 20.3188 63.0072 20.3188C64.6956 20.3188 66.0041 19.0813 66.0041 16.6766Z" fill="#031BF4"/>
<path d="M96.3397 7.46564V26H89.0513V24.1719C88.3656 24.8563 87.5483 25.3948 86.6487 25.7549C85.7492 26.115 84.786 26.2893 83.8172 26.2672C79.385 26.2672 76.0363 23.6656 76.0363 17.6609V7.46564H83.6765V16.3391C83.6765 18.9688 84.591 19.8547 86.0684 19.8547C87.5457 19.8547 88.6713 18.8703 88.6713 16.1422V7.46564H96.3397Z" fill="#031BF4"/>
<path d="M113.322 25.2828C111.861 25.9934 110.247 26.3316 108.623 26.2672C103.53 26.2672 100.561 23.8625 100.561 18.7719V14.0469H98.0281V8.42189H100.561V3.3172H108.187V8.47814H111.972V14.1031H108.187V18.7578C108.156 18.9828 108.175 19.2118 108.241 19.4289C108.308 19.6461 108.42 19.8463 108.571 20.016C108.722 20.1856 108.908 20.3206 109.116 20.4117C109.324 20.5028 109.55 20.5478 109.777 20.5438C110.386 20.5476 110.983 20.3715 111.493 20.0375L113.322 25.2828Z" fill="#031BF4"/>
</svg>
