<svg width="60" height="13" viewBox="0 0 60 13" fill="none" xmlns="http://www.w3.org/2000/svg">
<path d="M9.87572 10.6927H5.12043L4.29311 12.8514H-6.10352e-05L5.47818 0.762726H9.62232L15.0931 12.8514H10.7254L9.87572 10.6927ZM8.71294 7.75686L7.49812 4.71312L6.28321 7.75686H8.71294Z" fill="#031BF4"/>
<path d="M26.9068 8.08067C26.9068 11.1244 24.7379 12.9881 22.1814 12.9881C21.6894 13.0288 21.1941 12.9649 20.7305 12.8008C20.2669 12.6367 19.8462 12.3764 19.4981 12.0383V12.8514H15.6522V0H19.6994V4.00795C20.0365 3.72023 20.4296 3.50016 20.8557 3.36056C21.2818 3.22097 21.7325 3.16464 22.1814 3.19485C24.7379 3.19485 26.9068 5.04412 26.9068 8.08067ZM22.8074 8.08067C22.8074 6.85742 22.1143 6.2314 21.2198 6.2314C20.3254 6.2314 19.6248 6.85742 19.6248 8.08067C19.6248 9.30393 20.3105 9.97312 21.2198 9.97312C22.1292 9.97312 22.8074 9.31112 22.8074 8.08067Z" fill="#031BF4"/>
<path d="M27.6521 8.08071C27.6521 5.20246 30.0372 3.19489 33.3465 3.19489C36.6558 3.19489 39.0335 5.21685 39.0335 8.08071C39.0335 10.9446 36.6707 12.9881 33.3465 12.9881C30.0223 12.9881 27.6521 10.9518 27.6521 8.08071ZM34.9341 8.08071C34.9341 6.85745 34.2409 6.23143 33.3465 6.23143C32.4521 6.23143 31.7515 6.85745 31.7515 8.08071C31.7515 9.30396 32.4521 9.94437 33.3465 9.94437C34.2409 9.94437 34.9341 9.31116 34.9341 8.08071Z" fill="#031BF4"/>
<path d="M51.0038 3.36755V12.8514H47.1429V11.9159C46.7797 12.2661 46.3467 12.5417 45.8702 12.7259C45.3937 12.9102 44.8834 12.9994 44.3702 12.9881C42.0224 12.9881 40.2485 11.6569 40.2485 8.58437V3.36755H44.2957V7.90798C44.2957 9.25356 44.7802 9.70689 45.5628 9.70689C46.3454 9.70689 46.9416 9.20319 46.9416 7.80725V3.36755H51.0038Z" fill="#031BF4"/>
<path d="M60 12.4844C59.2259 12.8479 58.3707 13.021 57.5106 12.988C54.8124 12.988 53.2398 11.7576 53.2398 9.15279V6.73506H51.8981V3.85682H53.2398V1.24481H57.2795V3.8856H59.2845V6.76385H57.2795V9.14559C57.2633 9.26073 57.2732 9.37786 57.3083 9.48898C57.3435 9.6001 57.4031 9.70257 57.4831 9.78937C57.5631 9.87617 57.6616 9.94524 57.7718 9.99185C57.882 10.0385 58.0014 10.0615 58.1217 10.0594C58.4446 10.0614 58.7609 9.9713 59.031 9.80039L60 12.4844Z" fill="#031BF4"/>
</svg>
