<svg width="115" height="122" viewBox="0 0 115 122" fill="none" xmlns="http://www.w3.org/2000/svg">
<path d="M55.19 107.94C84.4887 107.94 108.24 84.1888 108.24 54.8901C108.24 25.5914 84.4887 1.84009 55.19 1.84009C25.8913 1.84009 2.14001 25.5914 2.14001 54.8901C2.14001 84.1888 25.8913 107.94 55.19 107.94Z" fill="#183157" stroke="#050505" stroke-width="2.8" stroke-miterlimit="10"/>
<path d="M107.36 45.29C106.647 46.0217 105.979 46.7965 105.36 47.61L104.67 46.5201C104.103 45.6201 103.523 44.73 102.93 43.85C102.17 42.74 101.39 41.63 100.57 40.55C99.7947 39.5031 98.96 38.5014 98.07 37.55C97.4478 36.8231 96.6948 36.2193 95.85 35.7701C95.3571 35.5522 94.8283 35.4268 94.29 35.4001C93.5198 35.3672 92.7494 35.4618 92.01 35.68C91.1929 35.9278 90.4051 36.2631 89.66 36.68C88.8367 37.1461 88.048 37.6708 87.3 38.25C86.49 38.88 85.72 39.55 84.97 40.25C84.22 40.95 83.46 41.73 82.75 42.5C82.04 43.27 81.35 44.07 80.68 44.87C80.01 45.67 79.43 46.42 78.83 47.2C78.23 47.98 77.77 48.6201 77.25 49.3401L76.01 51.14C75.72 51.57 75.43 52 75.15 52.44C75.01 52.65 74.87 52.8701 74.74 53.0901C74.74 53.0901 66.29 32.44 59.9 26.3C53.51 20.16 47.45 21.53 41.55 29.18C34 39 22.66 59.43 22.66 59.43C22.66 59.43 23.66 57.0601 15.73 40.9001C13.4 36.1301 11.27 31.9 9.35 28.17C5.20867 35.2484 2.77746 43.1961 2.25 51.38C14.34 66.09 22.25 91.97 22.25 91.97C22.25 91.97 50.41 26.33 56.64 25.87C62.87 25.41 78.98 63.1 78.24 60.57C78.1876 60.2328 78.2256 59.8878 78.35 59.57C78.5187 58.9908 78.7327 58.4257 78.99 57.88C79.32 57.13 79.69 56.4 80.07 55.68C80.53 54.8 81.01 53.95 81.51 53.1C82.01 52.25 82.63 51.22 83.22 50.29C83.81 49.36 84.47 48.36 85.11 47.41C85.75 46.46 86.43 45.52 87.11 44.6C87.79 43.68 88.42 42.86 89.11 42.01C89.8 41.16 90.37 40.5 91.04 39.79C91.5951 39.1849 92.1862 38.6139 92.81 38.08C93.2781 37.6867 93.7918 37.351 94.34 37.08C94.6319 36.9225 94.9583 36.84 95.29 36.84C95.6217 36.84 95.9481 36.9225 96.24 37.08C97.4309 37.795 98.4704 38.736 99.3 39.85C100.131 40.8657 100.909 41.9239 101.63 43.0201C102.35 44.1001 103.03 45.21 103.69 46.33C104.21 47.22 104.69 48.13 105.23 49.04L105.73 49.94C105.805 50.113 105.899 50.2773 106.01 50.43C106.01 50.43 106.01 50.48 106.06 50.49C106.11 50.5 106.06 50.44 106.06 50.42C105.86 49.87 106.55 48.68 107.7 47.42C107.6 46.69 107.49 46 107.36 45.29Z" fill="#DF5D00"/>
<path d="M80.1149 109.509C79.8907 109.239 79.6472 109.014 79.3841 108.835C79.123 108.651 78.8442 108.516 78.5478 108.432C78.2545 108.346 77.947 108.313 77.6252 108.334C77.3034 108.355 76.9723 108.434 76.6317 108.569C76.0734 108.79 75.623 109.136 75.2803 109.605C74.9376 110.075 74.7427 110.644 74.6954 111.313C74.6482 111.981 74.7865 112.723 75.1102 113.539C75.4339 114.355 75.8436 114.99 76.3394 115.443C76.8351 115.896 77.3733 116.174 77.954 116.277C78.5346 116.381 79.1164 116.317 79.6992 116.086C80.2391 115.871 80.669 115.568 80.9888 115.175C81.3104 114.777 81.5023 114.321 81.5644 113.807C81.6284 113.288 81.5459 112.74 81.3171 112.163L81.6961 112.098L78.8616 113.223L78.46 112.21L82.0491 110.786L82.4507 111.799C82.7586 112.575 82.8607 113.315 82.757 114.02C82.6563 114.724 82.3788 115.349 81.9244 115.895C81.4718 116.437 80.8713 116.856 80.1228 117.153C79.2884 117.484 78.4773 117.579 77.6896 117.437C76.905 117.294 76.1927 116.93 75.5527 116.346C74.9158 115.761 74.4002 114.971 74.0058 113.977C73.7101 113.232 73.5439 112.522 73.5072 111.848C73.4723 111.169 73.5556 110.547 73.757 109.981C73.9583 109.414 74.2661 108.92 74.6804 108.496C75.0946 108.072 75.6039 107.741 76.2082 107.501C76.7052 107.304 77.1982 107.195 77.6873 107.175C78.1782 107.151 78.6466 107.208 79.0923 107.347C79.5399 107.482 79.9521 107.693 80.3288 107.981C80.7043 108.265 81.0256 108.618 81.2928 109.041L80.1149 109.509Z" fill="#183157"/>
<path d="M89.4086 108.891L87.097 105.036L88.0989 104.435L92.0094 110.956L91.0074 111.557L90.3455 110.453L90.2776 110.494C90.3233 110.917 90.2544 111.341 90.071 111.767C89.8858 112.189 89.547 112.548 89.0545 112.844C88.6469 113.088 88.2312 113.216 87.8073 113.228C87.3817 113.237 86.9696 113.115 86.5713 112.861C86.1712 112.605 85.8048 112.199 85.4721 111.644L82.9874 107.501L83.9893 106.9L86.4333 110.975C86.7185 111.451 87.0789 111.75 87.5147 111.874C87.9533 111.996 88.3806 111.932 88.7967 111.682C89.0458 111.533 89.2609 111.317 89.4421 111.036C89.6261 110.752 89.7269 110.426 89.7445 110.058C89.765 109.688 89.653 109.299 89.4086 108.891Z" fill="#183157"/>
<path d="M95.8026 108.323L91.0884 102.393L91.9996 101.668L96.7139 107.599L95.8026 108.323ZM90.766 101.036C90.5884 101.177 90.3872 101.238 90.1623 101.22C89.94 101.199 89.7613 101.104 89.6263 100.934C89.4912 100.764 89.4387 100.568 89.4687 100.347C89.5012 100.124 89.6063 99.9414 89.7839 99.8002C89.9615 99.6591 90.1615 99.5988 90.3838 99.6196C90.6086 99.6382 90.7886 99.7325 90.9236 99.9024C91.0587 100.072 91.1099 100.269 91.0774 100.492C91.0474 100.713 90.9436 100.895 90.766 101.036Z" fill="#183157"/>
<path d="M102.08 102.765C101.649 103.234 101.15 103.539 100.583 103.681C100.014 103.82 99.4189 103.791 98.7979 103.594C98.1745 103.395 97.5649 103.022 96.969 102.474C96.378 101.931 95.9583 101.359 95.7098 100.756C95.4614 100.154 95.3848 99.5637 95.48 98.9846C95.5753 98.4054 95.8406 97.879 96.276 97.4052C96.6126 97.0389 96.9396 96.8056 97.2569 96.7053C97.574 96.6004 97.8612 96.5625 98.1182 96.5915C98.3751 96.6158 98.5816 96.6412 98.7376 96.6674L98.805 96.5942L96.0356 94.0493L96.83 93.1848L104.332 100.079L103.565 100.914L102.7 100.12L102.606 100.222C102.65 100.38 102.697 100.589 102.745 100.85C102.791 101.109 102.776 101.403 102.698 101.732C102.618 102.06 102.412 102.404 102.08 102.765ZM101.411 101.935C101.729 101.588 101.908 101.212 101.948 100.806C101.984 100.399 101.899 99.9844 101.691 99.5636C101.481 99.1406 101.163 98.7339 100.738 98.3434C100.318 97.9574 99.8942 97.6807 99.467 97.5133C99.0373 97.3437 98.6246 97.2978 98.2288 97.3755C97.8306 97.451 97.47 97.6646 97.1468 98.0163C96.8102 98.3826 96.6237 98.7743 96.5873 99.1913C96.5508 99.6036 96.6363 100.018 96.844 100.434C97.0516 100.845 97.3531 101.233 97.7488 101.596C98.1493 101.964 98.5693 102.238 99.0087 102.416C99.448 102.59 99.8751 102.645 100.29 102.58C100.705 102.511 101.079 102.296 101.411 101.935Z" fill="#183157"/>
<path d="M109.04 93.5647C108.679 94.202 108.226 94.6719 107.683 94.9745C107.138 95.2726 106.541 95.4025 105.891 95.3641C105.24 95.3211 104.576 95.1076 103.899 94.7233C103.221 94.3391 102.694 93.877 102.317 93.3371C101.939 92.7926 101.732 92.2157 101.694 91.6064C101.655 90.9925 101.805 90.387 102.144 89.7899C102.339 89.4454 102.59 89.1378 102.895 88.8671C103.2 88.5963 103.56 88.3964 103.975 88.2674C104.387 88.1367 104.85 88.1092 105.365 88.1849C105.879 88.2606 106.445 88.4735 107.063 88.8235L107.493 89.0677L104.602 94.166L103.723 93.6678L106.029 89.603C105.656 89.3913 105.28 89.2771 104.903 89.2603C104.527 89.2406 104.177 89.3191 103.853 89.4958C103.53 89.6696 103.265 89.9402 103.057 90.3076C102.827 90.7124 102.729 91.1196 102.762 91.5292C102.794 91.9344 102.925 92.3062 103.154 92.6448C103.383 92.9835 103.68 93.2561 104.044 93.4629L104.63 93.795C105.129 94.0783 105.602 94.2324 106.047 94.2571C106.491 94.2774 106.891 94.1838 107.247 93.9763C107.601 93.7672 107.895 93.4574 108.127 93.0469C108.279 92.78 108.378 92.5177 108.426 92.26C108.472 91.9979 108.464 91.7448 108.401 91.5006C108.336 91.2548 108.213 91.0237 108.032 90.8073L108.864 89.9819C109.139 90.2741 109.333 90.6138 109.447 91.0011C109.558 91.3867 109.583 91.7989 109.52 92.2375C109.454 92.6745 109.294 93.1169 109.04 93.5647Z" fill="#183157"/>
</svg>
