<svg width="329" height="214" viewBox="0 0 329 214" fill="none" xmlns="http://www.w3.org/2000/svg">
<g filter="url(#filter0_d_2_29)">
<path d="M305.617 101.152V0.84375H16.0507V101.152H4.5271V204.75H323.725V101.152H305.617Z" fill="#DF5D00" stroke="#282726" stroke-miterlimit="10"/>
<path d="M99.3749 70.7062C99.3749 71.9859 99.3749 73.0687 99.2764 73.9406C99.0309 76.3276 98.9322 78.7275 98.9809 81.1266L99.0794 88.3266C90.4309 87.9797 74.7941 87.8063 52.1691 87.8063H47.948C44.9792 87.8063 43.4877 87.525 43.4877 86.9484C43.4877 86.3719 43.9661 86.0906 44.8948 86.0906C48.2716 86.0906 50.4244 85.5563 51.3812 84.6844C51.9862 84.15 52.2817 82.5328 52.2817 79.8328V24.989C52.4311 23.5544 52.2232 22.1052 51.6766 20.7703C51.2037 20.2472 50.6112 19.8462 49.9498 19.6014C49.2883 19.3565 48.5774 19.2751 47.8777 19.364H45.3309C44.5711 19.364 44.1912 19.1109 44.1912 18.6047C44.1912 18.0984 44.6696 17.8454 45.5983 17.8454H74.0624C74.7378 17.8454 75.0755 18.1265 75.0755 18.6609C75.0755 19.1953 74.2031 19.575 72.4444 19.575C69.9539 19.575 68.4765 19.8703 68.0404 20.475C67.6042 21.0797 67.3791 23.7516 67.3791 28.4766V52.5797C67.3791 57.5015 67.5151 68.536 67.7871 85.6828C69.0675 85.6828 70.5167 85.7813 72.1489 85.7813C77.0591 85.9203 81.9724 85.6522 86.8383 84.9797C88.7154 84.7098 90.4954 83.9754 92.0164 82.8432C93.5374 81.7111 94.7513 80.217 95.5478 78.4968C96.6157 75.7807 97.3618 72.9489 97.7709 70.0593C97.9819 68.9765 98.2774 68.4281 98.6854 68.4281C99.0935 68.4281 99.3749 69.2156 99.3749 70.7062Z" fill="black"/>
<path d="M171.963 86.7937C171.991 87.0231 171.927 87.2541 171.784 87.436C171.642 87.6179 171.433 87.7359 171.204 87.7641C169.905 87.9043 168.598 87.9559 167.292 87.9187L162.733 87.8063C157.743 87.675 154.301 87.6094 152.406 87.6094C150.183 87.6094 148.185 87.6094 146.524 87.7078C143.147 87.8485 140.854 87.9187 139.644 87.9187C137.768 87.9187 136.853 87.5813 136.9 86.9063C136.9 86.2313 138.828 85.8516 142.683 85.7813C143.397 85.8094 144.111 85.7431 144.808 85.5844C145.891 85.4578 146.426 85.05 146.426 84.375C146.123 82.9419 145.719 81.5321 145.216 80.1563L143.091 73.575C142.683 72.0984 141.797 69.3563 140.446 65.3766H130.723C127.909 65.3063 124.884 65.3766 121.704 65.475C121.099 66.8813 119.946 69.8625 118.271 74.5875L116.034 81.1687C115.743 81.9492 115.572 82.7696 115.528 83.6015C115.528 84.7546 116.273 85.5 117.765 85.8234C118.102 85.8937 119.749 86.0343 122.717 86.2312C123.674 86.2312 124.124 86.5828 124.124 87.0891C124.124 87.5953 123.519 87.9609 122.309 87.9609H104.243C103.3 87.9609 102.836 87.6234 102.836 86.9484C102.836 86.5406 103.877 86.2735 105.974 86.1328C108.675 86.0063 110.406 85.5 111.152 84.6141C111.897 83.7281 113.107 80.9016 114.796 76.1766C116.081 72.8016 117.957 67.8093 120.424 61.2L132.679 27.45C133.289 25.9687 134.133 23.625 135.212 20.4187C135.958 18.1265 136.534 16.9734 136.928 16.9734C137.322 16.9734 138.082 18.5343 139.166 21.6421C140.516 25.6265 146.459 41.3532 156.993 68.8219C158.343 72.3375 159.694 75.914 161.045 79.5515C162.199 82.6593 163.338 84.5437 164.492 85.1765C165.364 85.725 167.461 85.964 170.767 85.8937C171.513 85.8937 171.963 86.189 171.963 86.7937ZM139.742 63.1125C139.742 62.9016 139.447 62.2687 139.039 61.1859C136.319 53.3578 134.349 47.8594 133.129 44.6906C132.806 43.8047 132.356 42.5109 131.722 40.8234L131.047 39.0235C129.837 41.9203 128.346 45.9422 126.601 51.061C124.64 56.7985 123.233 60.8157 122.38 63.1125H139.7H139.742Z" fill="black"/>
<path d="M221.561 67.8656C221.636 70.7278 221.089 73.5722 219.96 76.2035C218.831 78.8348 217.145 81.1907 215.018 83.1094C210.457 87.1993 204.483 89.3574 198.359 89.1282C194.241 89.1282 188.566 87.7453 181.334 84.9797C180.888 84.791 180.411 84.6861 179.927 84.6703C178.788 84.6703 177.901 85.8938 177.296 88.3266C177.099 89.0579 176.818 89.4375 176.494 89.4375C175.945 89.4375 175.678 88.9594 175.678 88.0313C175.748 86.4705 175.917 84.9158 176.185 83.3766C176.473 81.261 176.61 79.1274 176.593 76.9922C176.593 75.0375 176.593 73.4907 176.494 72.3375C176.353 70.0407 176.283 68.6907 176.283 68.2875C176.283 67.2047 176.621 66.6703 177.296 66.6703C177.971 66.6703 178.576 68.0766 179.125 71.0157C179.796 75.5313 182.056 79.6598 185.499 82.6594C188.688 85.4858 192.789 87.0685 197.051 87.1172C200.455 87.2138 203.762 85.9775 206.267 83.6719C207.47 82.6237 208.429 81.3255 209.078 79.8682C209.727 78.4108 210.05 76.8294 210.024 75.2344C210.085 73.9979 209.902 72.7613 209.484 71.5958C209.066 70.4302 208.422 69.3586 207.589 68.4422C206.351 67.2516 202.449 64.875 195.883 61.3125C188.519 57.4031 183.52 53.4891 180.884 49.5704C178.394 45.7907 177.122 41.3395 177.24 36.8157C177.169 34.108 177.684 31.4169 178.75 28.9267C179.816 26.4365 181.408 24.2058 183.417 22.3875C187.675 18.5234 193.272 16.4703 199.021 16.6641C202.759 16.7379 206.444 17.5653 209.855 19.0969C210.739 19.5257 211.691 19.797 212.669 19.8984C213.682 19.8984 214.357 19.0266 214.695 17.2687C214.821 16.6641 215.131 16.3547 215.609 16.3547C216.088 16.3547 216.622 16.8047 216.622 17.6765C216.622 18.014 216.552 18.9515 216.411 20.489C216.271 22.05 216.214 23.3016 216.214 24.3422C216.184 27.3194 216.32 30.2959 216.622 33.2578C216.692 33.5192 216.725 33.7889 216.721 34.0594C216.721 34.6641 216.44 34.9735 215.905 34.9735C215.37 34.9735 214.695 33.8906 214.09 31.739C213.402 29.4253 212.321 27.2469 210.896 25.2985C209.678 23.4748 208.109 21.9116 206.281 20.7C204.146 19.4629 201.713 18.8309 199.246 18.8719C196.002 18.7199 192.808 19.7157 190.227 21.6844C189.127 22.5863 188.253 23.7321 187.674 25.0308C187.095 26.3296 186.827 27.7454 186.892 29.1657C186.891 30.5377 187.168 31.8958 187.708 33.1576C188.247 34.4193 189.037 35.5585 190.03 36.5062C192.121 38.6437 196.141 41.3625 202.088 44.6625C209.376 48.7125 214.202 51.9516 216.566 54.3797C218.244 56.1897 219.549 58.3122 220.406 60.6261C221.263 62.94 221.655 65.4 221.561 67.8656Z" fill="black"/>
<path d="M286.495 36.5906C286.495 37.125 286.256 37.3922 285.778 37.3922C285.032 37.3922 284.371 36.0844 283.752 33.4828C282.542 28.3453 280.853 24.8437 278.686 22.9781C276.52 21.1125 273.077 20.175 268.359 20.1656H263.589V81.7172C263.659 83.4188 264.138 84.5297 264.996 84.9656C267.317 85.7136 269.734 86.121 272.172 86.175C272.918 86.175 273.298 86.5547 273.298 87.0891C273.298 87.6235 272.749 88.1015 271.665 88.1015C271.468 88.1015 270.962 88.1015 270.146 88.0031C269.33 87.9047 268.289 87.9046 267.613 87.9046L257.187 87.5953L239.965 88.1015C239.022 88.1015 238.558 87.8343 238.558 87.2859C238.558 86.7375 238.699 86.6531 238.966 86.5828C240.073 86.4504 241.186 86.3801 242.301 86.3719C246.015 86.2453 248.013 85.3594 248.281 83.7422C248.421 82.861 248.492 75.989 248.492 63.1265V20.1797H245.846C240.443 20.1797 236.513 21.1687 234.056 23.1469C231.598 25.125 229.994 28.6313 229.244 33.6657C228.765 36.6188 228.16 38.0953 227.414 38.0953C226.669 38.0953 226.5 37.7016 226.5 36.8859C226.5 36.3516 226.641 34.4953 226.908 31.2609C227.443 24.6375 227.78 20.1234 227.921 17.6906H236.841L243.877 17.8454C248.36 17.9485 254.082 18 261.042 18C264.898 18 268.345 17.9719 271.384 17.9156C274.423 17.9156 277.195 17.9156 279.685 17.9156C281.923 17.9156 283.597 17.9157 284.751 17.761C284.957 22.1297 285.464 27.7031 286.27 34.4812C286.425 35.6062 286.495 36.3094 286.495 36.5906Z" fill="black"/>
<path d="M80.788 166.303C80.8623 169.164 80.3175 172.007 79.1907 174.638C78.0639 177.269 76.3818 179.626 74.2594 181.547C69.691 185.635 63.7139 187.793 57.5861 187.566C53.4776 187.566 47.7369 186.159 40.5751 183.417C40.1288 183.23 39.652 183.125 39.1681 183.108C38.0144 183.108 37.142 184.331 36.537 186.764C36.3259 187.495 36.0586 187.875 35.7209 187.875C35.3832 187.875 34.9189 187.397 34.9189 186.469C34.9884 184.908 35.1576 183.353 35.4254 181.814C35.7091 179.698 35.8407 177.565 35.8194 175.43C35.8194 173.475 35.8194 171.928 35.7209 170.775C35.5943 168.483 35.5239 167.133 35.5239 166.725C35.5239 165.642 35.8616 165.108 36.537 165.108C37.2123 165.108 37.8174 166.514 38.352 169.453C39.0334 173.968 41.2973 178.095 44.7399 181.097C47.9272 183.925 52.0294 185.509 56.2916 185.555C59.6951 185.648 63.0011 184.412 65.5077 182.109C66.7089 181.061 67.6663 179.762 68.3128 178.304C68.9593 176.847 69.2793 175.266 69.2504 173.672C69.3136 172.436 69.1325 171.2 68.7172 170.035C68.3019 168.869 67.6607 167.797 66.8303 166.88C65.6109 165.67 61.6899 163.275 55.0675 159.694C47.7135 155.784 42.7185 151.87 40.0827 147.952C37.5927 144.172 36.321 139.721 36.4385 135.197C36.3674 132.489 36.8826 129.798 37.9487 127.308C39.0148 124.818 40.6067 122.587 42.6153 120.769C46.872 116.902 52.4705 114.849 58.2193 115.045C61.9575 115.121 65.6422 115.948 69.0534 117.478C69.9113 117.898 70.8343 118.169 71.783 118.28C72.7961 118.28 73.4714 117.408 73.8091 115.65C73.9498 115.045 74.2594 114.736 74.7237 114.736C75.3991 114.736 75.7368 115.186 75.7368 116.058C75.7368 116.395 75.7368 117.337 75.5398 118.87C75.3428 120.403 75.3287 121.683 75.3287 122.723C75.3052 125.7 75.4415 128.677 75.7368 131.639C75.8133 131.899 75.8466 132.17 75.8353 132.441C75.8353 133.045 75.5679 133.355 75.0333 133.355C74.4986 133.355 73.8091 132.272 73.2041 130.12C72.5207 127.805 71.44 125.625 70.0102 123.68C68.797 121.857 67.233 120.294 65.4092 119.081C63.274 117.844 60.8417 117.212 58.374 117.253C55.1299 117.099 51.9356 118.095 49.355 120.066C48.2536 120.967 47.3775 122.112 46.7962 123.411C46.2149 124.709 45.9444 126.126 46.0063 127.547C46.0077 128.92 46.2878 130.278 46.8295 131.54C47.3712 132.802 48.1634 133.941 49.158 134.888C51.2404 137.025 55.2551 139.744 61.2022 143.044C68.5 147.094 73.3307 150.333 75.6946 152.761C77.3975 154.569 78.7246 156.697 79.5989 159.022C80.4732 161.347 80.8774 163.821 80.788 166.303Z" fill="black"/>
<path d="M159.399 186.244C159.399 186.652 159.103 186.863 158.498 186.863C158.056 186.865 157.614 186.836 157.176 186.778C154.812 186.497 148.194 186.356 137.322 186.356H129.513C127.431 186.356 126.376 186.131 126.376 185.498C126.376 184.866 127.22 184.598 128.908 184.528C130.25 184.493 131.573 184.202 132.806 183.67C133.931 183.164 134.48 182.573 134.48 181.898C134.546 181.505 134.616 180.394 134.691 178.566V150.103H110.575V181.392C110.575 183.15 111.982 184.205 114.627 184.528C115.851 184.65 117.067 184.838 118.271 185.091C118.419 185.121 118.551 185.202 118.644 185.321C118.737 185.439 118.784 185.587 118.778 185.737C118.778 186.145 118.44 186.356 117.765 186.356C117.089 186.356 114.557 186.356 110.73 186.145C106.902 185.934 105.369 185.948 105.974 185.948L99.7407 186.145C95.998 186.286 92.4241 186.356 89.0613 186.356H88.0483C86.8241 186.356 86.2191 186.047 86.2191 185.442C86.2191 184.838 86.6834 184.627 87.6261 184.627C90.792 184.627 92.9869 184.233 94.211 183.417C94.7457 183.08 95.013 181.294 95.013 178.059V122.245C95.013 120.094 94.4362 118.8 93.2543 118.364C91.4256 117.845 89.5255 117.621 87.6261 117.703C86.7256 117.703 86.2191 117.436 86.2191 116.888C86.2191 116.564 86.585 116.353 87.3307 116.283H117.314C118.257 116.283 118.721 116.62 118.721 117.295C118.721 117.97 118.539 118.055 118.187 118.153C117.056 118.333 115.913 118.418 114.768 118.406C112.84 118.406 111.658 118.898 111.208 119.672C110.641 121.002 110.404 122.449 110.518 123.891V147.797H112.925C119.594 148.078 126.831 148.012 134.635 147.6V124.917C134.635 120.319 132.961 118.012 129.64 118.012C127.431 118.012 126.319 117.703 126.319 117.098C126.319 116.494 126.756 116.283 127.628 116.283H158.343C159.005 116.283 159.342 116.494 159.342 116.888C159.342 117.281 158.09 117.703 155.6 117.9C153.109 118.097 151.547 118.631 150.942 119.475C150.337 120.319 150.028 122.414 150.028 125.789V175.528C150.028 179.916 150.586 182.564 151.702 183.473C153.41 184.559 155.406 185.103 157.429 185.034C158.765 185.062 159.399 185.513 159.399 186.244Z" fill="black"/>
<path d="M230.622 151.313C230.885 160.76 227.517 169.949 221.209 176.991C218.316 180.296 214.747 182.941 210.743 184.749C206.739 186.557 202.394 187.485 198 187.471C193.607 187.456 189.267 186.499 185.276 184.664C181.284 182.83 177.733 180.16 174.862 176.836C168.481 169.847 165.035 160.673 165.238 151.214C165.238 140.967 168.427 132.394 174.806 125.494C177.791 122.167 181.46 119.522 185.561 117.741C189.662 115.96 194.099 115.083 198.57 115.172C202.917 115.101 207.224 115.996 211.183 117.79C215.142 119.585 218.653 122.235 221.463 125.55C227.56 132.469 230.613 141.056 230.622 151.313ZM212.767 152.888C212.767 139.472 211.177 129.562 207.997 123.159C207.17 121.251 205.789 119.634 204.034 118.516C202.279 117.398 200.229 116.831 198.148 116.888C193.543 116.888 189.88 119.822 187.159 125.691C184.439 131.559 183.07 139.411 183.051 149.245C183.051 163.533 185.48 174.216 190.339 181.294C191.299 182.734 192.617 183.901 194.163 184.68C195.709 185.459 197.432 185.823 199.161 185.737C201.192 185.82 203.197 185.254 204.884 184.121C206.572 182.988 207.854 181.348 208.546 179.438C211.36 172.791 212.767 163.941 212.767 152.888Z" fill="black"/>
<path d="M296.373 135.028C296.373 135.562 296.134 135.83 295.655 135.83C294.91 135.83 294.248 134.522 293.629 131.92C292.419 126.783 290.731 123.281 288.564 121.416C286.397 119.55 282.954 118.613 278.236 118.603H273.466V180.155C273.537 181.856 274.015 182.967 274.873 183.403C277.194 184.151 279.611 184.559 282.049 184.613C282.795 184.613 283.175 184.992 283.175 185.527C283.175 186.061 282.626 186.539 281.543 186.539C281.346 186.539 280.839 186.539 280.023 186.441C279.207 186.342 278.166 186.342 277.49 186.342L267.064 186.033L249.842 186.539C248.9 186.539 248.435 186.272 248.435 185.723C248.435 185.175 248.576 185.091 248.843 185.02C249.95 184.888 251.063 184.818 252.178 184.809C255.893 184.683 257.891 183.797 258.158 182.18C258.299 181.298 258.369 174.427 258.369 161.564V118.617H255.724C250.321 118.617 246.39 119.606 243.933 121.584C241.475 123.562 239.871 127.069 239.121 132.103C238.642 135.056 238.037 136.533 237.292 136.533C236.546 136.533 236.377 136.139 236.377 135.323C236.377 134.789 236.518 132.933 236.785 129.698C237.32 123.075 237.658 118.561 237.798 116.128H246.719L253.754 116.283C258.247 116.386 263.969 116.438 270.92 116.438C274.775 116.438 278.222 116.409 281.261 116.353C284.3 116.353 287.072 116.353 289.563 116.353C291.8 116.353 293.488 116.353 294.628 116.198C294.834 120.567 295.341 126.141 296.148 132.919C296.302 134.044 296.373 134.747 296.373 135.028Z" fill="black"/>
</g>
<defs>
<filter id="filter0_d_2_29" x="0.0270996" y="0.34375" width="328.198" height="212.906" filterUnits="userSpaceOnUse" color-interpolation-filters="sRGB">
<feFlood flood-opacity="0" result="BackgroundImageFix"/>
<feColorMatrix in="SourceAlpha" type="matrix" values="0 0 0 0 0 0 0 0 0 0 0 0 0 0 0 0 0 0 127 0" result="hardAlpha"/>
<feOffset dy="4"/>
<feGaussianBlur stdDeviation="2"/>
<feComposite in2="hardAlpha" operator="out"/>
<feColorMatrix type="matrix" values="0 0 0 0 0 0 0 0 0 0 0 0 0 0 0 0 0 0 0.25 0"/>
<feBlend mode="normal" in2="BackgroundImageFix" result="effect1_dropShadow_2_29"/>
<feBlend mode="normal" in="SourceGraphic" in2="effect1_dropShadow_2_29" result="shape"/>
</filter>
</defs>
</svg>
