<svg width="272" height="47" viewBox="0 0 272 47" fill="none" xmlns="http://www.w3.org/2000/svg">
<path d="M72.5202 20.8266V46.2797H55.3967V24.0188C55.3967 18.4641 53.5112 16.3547 50.7816 16.3547C47.7424 16.3547 45.4068 18.5485 45.4068 24.4969V46.2797H28.2832V24.0188C28.2832 18.4641 26.5385 16.3547 23.6682 16.3547C20.7978 16.3547 18.2933 18.5485 18.2933 24.4969V46.2797H1.1698V1.67346H17.4491V5.8219C18.9464 4.21223 20.7669 2.93673 22.7915 2.07887C24.8161 1.221 26.9992 0.800125 29.1978 0.843776C31.7624 0.718827 34.3139 1.27976 36.5893 2.46874C38.8647 3.65771 40.7816 5.43171 42.1424 7.60784C43.7591 5.4722 45.8562 3.74701 48.264 2.5719C50.6717 1.39679 53.3225 0.804772 56.0017 0.843776C65.3866 0.843776 72.5202 6.80627 72.5202 20.8266Z" fill="#DF5D00" stroke="#282726" stroke-miterlimit="10"/>
<path d="M208.903 17.9719C208.903 28.4766 201.671 35.1 190.302 35.1H184.407V46.2516H170.646V0.84375H190.345C201.699 0.84375 208.903 7.46719 208.903 17.9719ZM195.03 17.9719C195.03 14.6672 193.215 12.6562 189.402 12.6562H184.379V23.3438H189.402C193.243 23.3438 195.058 21.2906 195.058 17.9719H195.03Z" fill="#DF5D00" stroke="#282726" stroke-miterlimit="10"/>
<path d="M225.858 0.84375H240.013V46.2516H225.858V0.84375Z" fill="#DF5D00" stroke="#282726" stroke-miterlimit="10"/>
<path d="M256.658 0.84375H270.813V46.2516H256.658V0.84375Z" fill="#DF5D00" stroke="#282726" stroke-miterlimit="10"/>
<path d="M121.443 35.3532C127.962 35.3532 133.248 30.0708 133.248 23.5547C133.248 17.0386 127.962 11.7563 121.443 11.7563C114.923 11.7563 109.638 17.0386 109.638 23.5547C109.638 30.0708 114.923 35.3532 121.443 35.3532Z" fill="#DF5D00" stroke="#282726" stroke-miterlimit="10"/>
</svg>
