<svg width="272" height="47" viewBox="0 0 272 47" fill="none" xmlns="http://www.w3.org/2000/svg">
<path d="M72.3504 20.8266V46.2797H55.2269V24.0188C55.2269 18.4641 53.3414 16.3547 50.6118 16.3547C47.5726 16.3547 45.237 18.5485 45.237 24.4969V46.2797H28.1134V24.0188C28.1134 18.4641 26.3687 16.3547 23.4984 16.3547C20.628 16.3547 18.1235 18.5485 18.1235 24.4969V46.2797H1V1.67346H17.2793V5.8219C18.7766 4.21223 20.5971 2.93673 22.6217 2.07887C24.6463 1.221 26.8294 0.800125 29.028 0.843776C31.5926 0.718827 34.1441 1.27976 36.4195 2.46874C38.6949 3.65771 40.6118 5.43171 41.9726 7.60784C43.5893 5.4722 45.6864 3.74701 48.0942 2.5719C50.5019 1.39679 53.1527 0.804772 55.8319 0.843776C65.2168 0.843776 72.3504 6.80627 72.3504 20.8266Z" fill="#031BF4" stroke="#282726" stroke-miterlimit="10"/>
<path d="M208.734 17.9719C208.734 28.4766 201.502 35.1 190.133 35.1H184.237V46.2516H170.477V0.84375H190.175C201.53 0.84375 208.734 7.46719 208.734 17.9719ZM194.86 17.9719C194.86 14.6672 193.045 12.6562 189.232 12.6562H184.209V23.3438H189.232C193.073 23.3438 194.889 21.2906 194.889 17.9719H194.86Z" fill="#031BF4" stroke="#282726" stroke-miterlimit="10"/>
<path d="M225.688 0.84375H239.843V46.2516H225.688V0.84375Z" fill="#031BF4" stroke="#282726" stroke-miterlimit="10"/>
<path d="M256.488 0.84375H270.643V46.2516H256.488V0.84375Z" fill="#031BF4" stroke="#282726" stroke-miterlimit="10"/>
<path d="M121.273 35.3532C127.792 35.3532 133.078 30.0708 133.078 23.5547C133.078 17.0386 127.792 11.7563 121.273 11.7563C114.753 11.7563 109.468 17.0386 109.468 23.5547C109.468 30.0708 114.753 35.3532 121.273 35.3532Z" fill="#031BF4" stroke="#282726" stroke-miterlimit="10"/>
</svg>
