<svg width="172" height="28" viewBox="0 0 172 28" fill="none" xmlns="http://www.w3.org/2000/svg">
<path d="M0.969971 14.4001L65.38 13.8501" stroke="#0328F4" stroke-width="2.8" stroke-miterlimit="10"/>
<path d="M82.3 13.7001C74.36 16.7001 64.53 21.8501 58.45 27.2401L63.16 13.8701L58.22 0.570068C64.39 5.86007 74.31 10.8201 82.3 13.7001Z" fill="#0328F4"/>
<path d="M121.22 13.6701V22.4201H114.88V14.7601C114.88 12.8601 114.15 12.1301 113 12.1301C111.85 12.1301 110.62 12.9401 110.62 15.2101V22.4201H104.28V7.08011H110.28V8.59012C110.892 7.99921 111.616 7.53647 112.409 7.22909C113.203 6.92172 114.05 6.77585 114.9 6.80008C118.47 6.80008 121.22 8.84007 121.22 13.6701Z" fill="black"/>
<path d="M140.48 16.22H129.83C130.083 16.8101 130.519 17.3035 131.073 17.6276C131.628 17.9516 132.272 18.0891 132.91 18.02C134.08 18.056 135.222 17.6529 136.11 16.89L139.42 20.23C137.93 21.86 135.77 22.7 132.71 22.7C127.08 22.7 123.43 19.31 123.43 14.7C123.43 10.09 127.16 6.77002 132.13 6.77002C136.67 6.77002 140.57 9.52001 140.57 14.7C140.57 15.18 140.51 15.77 140.48 16.22ZM129.71 13.16H134.65C134.535 12.5899 134.226 12.0773 133.776 11.709C133.325 11.3407 132.762 11.1395 132.18 11.1395C131.599 11.1395 131.035 11.3407 130.585 11.709C130.134 12.0773 129.825 12.5899 129.71 13.16Z" fill="black"/>
<path d="M151.81 22.42L149.71 19.1401L147.35 22.42H140.48L146.29 14.8201L140.65 7.08008H147.8L149.99 10.3301L152.29 7.08008H158.94L153.3 14.54L159.08 22.42H151.81Z" fill="black"/>
<path d="M171.53 21.8901C170.316 22.477 168.977 22.7552 167.63 22.7001C163.4 22.7001 160.93 20.7001 160.93 16.4701V12.5501H158.82V7.9201H160.93V3.63013H167.27V7.9201H170.41V12.5501H167.27V16.4201C167.246 16.6058 167.261 16.7946 167.316 16.9738C167.371 17.1529 167.464 17.3182 167.588 17.4584C167.712 17.5987 167.865 17.7107 168.036 17.7869C168.207 17.8631 168.393 17.9017 168.58 17.9001C169.088 17.9045 169.585 17.7583 170.01 17.4801L171.53 21.8901Z" fill="black"/>
</svg>
