<svg width="51" height="52" viewBox="0 0 51 52" fill="none" xmlns="http://www.w3.org/2000/svg">
<path d="M19.125 47.6668C20.2986 47.6668 21.25 46.6968 21.25 45.5002C21.25 44.3035 20.2986 43.3335 19.125 43.3335C17.9514 43.3335 17 44.3035 17 45.5002C17 46.6968 17.9514 47.6668 19.125 47.6668Z" stroke="black" stroke-width="2" stroke-linecap="round" stroke-linejoin="round"/>
<path d="M42.5 47.6668C43.6736 47.6668 44.625 46.6968 44.625 45.5002C44.625 44.3035 43.6736 43.3335 42.5 43.3335C41.3264 43.3335 40.375 44.3035 40.375 45.5002C40.375 46.6968 41.3264 47.6668 42.5 47.6668Z" stroke="black" stroke-width="2" stroke-linecap="round" stroke-linejoin="round"/>
<path d="M2.125 2.1665H10.625L16.32 31.1782C16.5143 32.1757 17.0466 33.0718 17.8235 33.7095C18.6005 34.3472 19.5727 34.686 20.57 34.6665H41.225C42.2223 34.686 43.1945 34.3472 43.9715 33.7095C44.7484 33.0718 45.2807 32.1757 45.475 31.1782L48.875 12.9998H12.75" stroke="black" stroke-width="2" stroke-linecap="round" stroke-linejoin="round"/>
</svg>
