<svg width="167" height="30" viewBox="0 0 167 30" fill="none" xmlns="http://www.w3.org/2000/svg">
<path d="M0.680176 15.78L65.2001 15.23" stroke="#0328F4" stroke-width="2.81" stroke-miterlimit="10"/>
<path d="M82.16 15.08C74.16 18.08 64.35 23.25 58.26 28.65L62.98 15.25L57.98 1.92999C64.21 7.22999 74.16 12.19 82.16 15.08Z" fill="#0328F4"/>
<path d="M103.22 22.58L104.96 18.39C106.605 19.2956 108.452 19.7704 110.33 19.77C111.88 19.77 112.33 19.49 112.33 19.04C112.33 17.46 103.47 19.57 103.47 13.42C103.47 10.52 106.17 8.15997 111.34 8.15997C113.499 8.10817 115.642 8.54222 117.61 9.42999L115.87 13.61C114.509 12.8655 112.981 12.4801 111.43 12.49C109.8 12.49 109.35 12.85 109.35 13.22C109.35 14.82 118.17 12.74 118.17 18.9C118.17 21.68 115.56 24.1 110.17 24.1C107.767 24.1423 105.387 23.6218 103.22 22.58Z" fill="#2C2A29"/>
<path d="M127.41 19.09L126.41 20.19V23.8101H120.06V3H126.41V12.95L130.82 8.47998H138.33L131.98 15.14L138.83 23.85H131.16L127.41 19.09Z" fill="#2C2A29"/>
<path d="M139.44 4C139.44 2.18 140.93 0.77002 143.26 0.77002C145.59 0.77002 147.08 2.06001 147.08 3.89001C147.08 5.72001 145.59 7.23999 143.26 7.23999C140.93 7.23999 139.44 5.8 139.44 4ZM140.08 8.46997H146.43V23.84H140.08V8.46997Z" fill="#2C2A29"/>
<path d="M166.92 16.14C166.92 21.14 163.52 24.14 159.5 24.14C158.793 24.1879 158.083 24.095 157.412 23.8667C156.741 23.6384 156.122 23.2793 155.59 22.81V29.3101H149.24V8.47999H155.24V9.75001C155.788 9.19984 156.45 8.77605 157.179 8.50831C157.908 8.24058 158.686 8.13537 159.46 8.20003C163.52 8.16003 166.92 11.2 166.92 16.14ZM160.48 16.14C160.48 14.14 159.39 13.14 157.98 13.14C156.57 13.14 155.48 14.14 155.48 16.14C155.48 18.14 156.58 19.14 157.98 19.14C159.38 19.14 160.48 18.14 160.48 16.14Z" fill="#2C2A29"/>
</svg>
